<?xml version="1.0" encoding="utf-8"?>
<!-- Generator: Adobe Illustrator 23.0.3, SVG Export Plug-In . SVG Version: 6.00 Build 0)  -->
<svg version="1.1" xmlns="http://www.w3.org/2000/svg" xmlns:xlink="http://www.w3.org/1999/xlink" x="0px" y="0px"
	 viewBox="0 0 1000 1000" style="enable-background:new 0 0 1000 1000;" xml:space="preserve">
<style type="text/css">
	.st0{display:none;}
	.st1{display:inline;fill:#FFE600;}
	.st2{display:inline;fill:url(#SVGID_1_);}
	.st3{display:inline;}
	.st4{fill:#878787;}
	.st5{fill:#CCCCCC;}
	.st6{fill:#E8E8E8;}
	.st7{display:inline;fill:#E8E8E8;}
	.st8{fill:#080040;}
	.st9{fill:#FFE600;}
	.st10{fill:url(#SVGID_2_);}
	.st11{fill:#FFFFFF;}
	.st12{font-family:'AvenirNextLTPro-Bold';}
	.st13{font-size:13.9417px;}
</style>
<g id="Calque_2" class="st0">
	<path class="st1" d="M249.5,366.4c-0.4,0-0.9,0-1.3,0c-2.9,0-5.8-0.5-8.6-1.5c-0.8-0.3-1.5-0.6-2.2-1c-14.9-8-30.9-16.7-50.4-27.4
		c-1.6-0.9-5.4-3.3-6.8-7.6c-2.3-1.9-4.7-5.4-4.7-11.9c0-6.9,0-13.8,0-20.7l0-7.4c0-2.5,0-5,0-7.5l0-0.4c0-6.4,0-12.9,0-19.3
		c-0.1-9,4.1-16.3,11.9-20.6c15-8.4,30.4-16.7,45.3-24.8l2.1-1.1c2.3-1.2,4.8-1.9,7.3-1.9c2,0,3.9,0.4,5.7,1.2c1.5-0.6,3-0.9,4.7-1
		l0.1,0l66.7-0.1l0.1,0c20.1,1,37.6,6.6,50.6,16.1c18.4,13.5,27.8,33.9,27.8,60.7c0,24.9-9.4,45.4-27.1,59.5
		c-14.9,11.8-35.1,18.3-56.8,18.3L249.5,366.4z"/>
	<linearGradient id="SVGID_1_" gradientUnits="userSpaceOnUse" x1="178.4451" y1="290.3964" x2="394.6891" y2="290.3964">
		<stop  offset="0" style="stop-color:#1E1A10"/>
		<stop  offset="1" style="stop-color:#080040"/>
	</linearGradient>
	<path class="st2" d="M368.1,231.6c-12.6-9.2-29.5-14.5-49-15.5l-66.5,0.1c-1.8,0.1-3.4,0.6-4.9,1.4c-1.7-1-3.6-1.5-5.6-1.5
		c-2,0-4.1,0.5-5.9,1.5l-2.1,1.1c-14.9,8.1-30.2,16.4-45.3,24.8c-6.8,3.8-10.5,10.2-10.4,18c0.1,6.4,0.1,13,0,19.4
		c0,2.6,0,5.3,0,7.9l0,7c0,7,0,14.1,0,21.1c0,5.7,2.1,8.7,4.3,10.1c0.9,3.9,4.5,6.1,5.7,6.8c19.4,10.7,35.4,19.4,50.3,27.4
		c0.5,0.3,1.1,0.5,1.8,0.8c2.4,0.9,5,1.3,7.5,1.3c0,0,0,0,0,0c0.4,0,0.9,0,1.3,0l64.2,1.3c21.1,0,40.6-6.3,55-17.6
		c17-13.4,26-33.2,26-57.1C394.7,264.1,385.8,244.5,368.1,231.6z"/>
	<g class="st3">
		<path class="st4" d="M304.6,322.7c-16.7-9-33.4-18-50.1-26.9c-2.1-1.1-4.2-1.7-6.3-1.7v0c0,0,0,0,0,0c0,0-0.1,0-0.1,0v0
			c-2.1,0-4.2,0.6-6.3,1.7c-16.7,8.9-33.4,17.9-50.1,26.9c-1.1,0.6-2.5,1.8-2.5,2.7c0,0.9,1.4,2.2,2.5,2.7
			c16.7,9.2,33.5,18.3,50.3,27.4c0.3,0.1,0.6,0.3,0.9,0.4c3.4,1.3,7.1,1.3,10.5,0c0.3-0.1,0.6-0.3,0.9-0.4
			c16.8-9,33.6-18.2,50.3-27.4c1.1-0.6,2.4-1.8,2.5-2.7C307.1,324.5,305.6,323.3,304.6,322.7z M219.7,331.9c-4.4,0-7.8-1.9-7.9-4.5
			c-0.1-2.6,3.3-4.8,7.7-4.9c4.5-0.1,8.1,1.9,8.3,4.6C227.8,329.8,224.3,331.9,219.7,331.9z M276.6,331.9c-4.7,0-8.1-2.1-8-4.9
			c0.1-2.7,3.7-4.7,8.3-4.6c4.3,0.1,7.8,2.3,7.7,4.9C284.4,329.9,281,331.9,276.6,331.9z"/>
		<path class="st5" d="M185.1,288.9c0-9.1,0.1-18.2,0-27.4c-0.1-5.5,2.4-9.6,7-12.2c15.7-8.8,31.5-17.3,47.3-25.9
			c3.8-2,7.6,0.3,7.6,4.6c0,17.7,0.1,35.5-0.1,53.2c-0.1,6-2.7,10.8-8.3,13.8c-15.7,8.4-31.4,17-47.1,25.6c-4.6,2.5-6.3,1.4-6.3-3.7
			C185.1,307.7,185.1,298.3,185.1,288.9z M205.8,258.3c-0.8-0.6-2.1-2.1-3.6-2.5c-4.2-0.9-10,3.7-10.4,8c-0.3,2.3,0.8,3.8,3,4.4
			C199,269.3,205.8,264,205.8,258.3z M238.4,241c-0.8-0.6-2.1-2.2-3.7-2.5c-4.1-0.9-10.2,4-10.2,8.1c0,1.4,1.4,3.5,2.7,4
			C231.5,252.4,238.5,247,238.4,241z M233.9,276.6c-3.6,0.1-7.8,3.1-9.1,6.5c-1.4,3.7,0.7,6.5,4.7,5.9c4-0.6,7-2.9,8.6-6.7
			C239.5,279,237.6,276.5,233.9,276.6z M195.8,308.3c3.9,0.1,9.1-3.9,9.8-7.7c0.5-2.8-0.6-4.5-3.5-4.9c-4.2-0.5-9.3,3.2-10.3,7.3
			C191.2,306.2,192.7,308.2,195.8,308.3z"/>
		<path class="st6" d="M310.5,289.3c0,9.4,0,18.7,0,28.1c0,4.6-1.7,5.5-5.7,3.4c-16.1-8.6-32.1-17.2-48.2-25.8
			c-5.3-2.8-7.9-7.5-8-13.2c-0.2-18-0.1-36,0-54c0-4.3,4-6.3,8.2-4.1c12,6.4,24.1,12.9,36.1,19.4c3.1,1.7,6.2,3.5,9.4,5
			c5.8,2.8,8,7.8,8.2,13.8C310.7,271.1,310.5,280.2,310.5,289.3C310.5,289.3,310.5,289.3,310.5,289.3z M261.6,238.4
			c-3.7-0.1-5.6,2.8-4,6.3c1.7,3.8,4.8,5.9,8.8,6.5c3.3,0.5,5.4-1.9,4.6-5.2C270.3,242.2,265.6,238.5,261.6,238.4z M304.1,265.8
			c0.1-6.1-7.2-11.5-11.6-9.6c-1.2,0.5-2.5,2.8-2.5,4.2c0.3,4.3,6.2,8.8,10.4,7.9C302,267.9,303.3,266.3,304.1,265.8z M267,269.8
			c3.3,0,4.9-2.1,4.1-5.4c-0.9-4-5.9-7.7-9.9-7.4c-3.2,0.2-4.7,2.6-3.7,5.7C258.5,266.4,263.2,269.8,267,269.8z M304.1,286.2
			c0.4-6.3-7.3-11.9-11.8-9.8c-1.2,0.6-2.3,2.9-2.2,4.3c0.4,4.3,6,8.5,10.2,7.7C301.9,288.2,303.2,286.7,304.1,286.2z M266.8,289.2
			c3.4,0,4.9-1.8,4.3-5.2c-0.7-3.6-5.1-7.2-9.1-7.4c-3.9-0.2-5.7,2.2-4.5,5.9C258.6,286,263,289.2,266.8,289.2z M294.6,295.8
			c-3.5-0.1-5.3,1.8-4.7,4.9c0.9,4.1,6,8,10.1,7.7c3.2-0.2,4.8-2.6,3.7-5.7C302.5,299.1,298.4,295.9,294.6,295.8z"/>
	</g>
	<path class="st1" d="M312.2,222.6h-33.8c3,1.6,5.9,3.2,8.9,4.8l10.9,5.9c0.9,0.5,1.9,1,2.8,1.5c2.2,1.2,4.2,2.3,6.3,3.3
		c5.8,2.8,10,7.3,12.3,12.9c18.9,2.1,35.2,12.3,35.2,39c0,27.1-17,37.6-37,39.5c-1.7,5-6.1,7.8-7.6,8.6c-13.6,7.5-25.6,14-36.7,20
		h40.3c36.5,0,74.4-20.5,74.4-68.1C388,238.6,349.8,222.6,312.2,222.6z"/>
	<path class="st7" d="M319.5,273V307c8.4,0,15.3-7.6,15.3-17C334.8,280.6,328,273,319.5,273z"/>
</g>
<g id="Calque_2_-_copie_5">
	<path class="st8" d="M612.4,228.9c-13-9.5-30.5-15.1-50.6-16.1l-0.1,0l-66.7,0.1l-0.1,0c-1.6,0.1-3.2,0.5-4.7,1
		c-1.8-0.8-3.7-1.2-5.7-1.2c-2.5,0-5,0.7-7.3,1.9l-2.1,1.1c-14.9,8.1-30.2,16.4-45.3,24.8c-7.8,4.4-12,11.7-11.9,20.6
		c0.1,6.4,0.1,13,0,19.3l0,0.4c0,2.5,0,5,0,7.5l0,7.4c0,6.9,0,13.8,0,20.7c0,6.5,2.4,10,4.7,11.9c1.5,4.3,5.2,6.7,6.8,7.6
		c19.4,10.7,35.4,19.4,50.4,27.4c0.6,0.4,1.4,0.7,2.2,1c2.7,1,5.6,1.5,8.6,1.5c0.4,0,0.9,0,1.3,0l64.2,1.3
		c21.7,0,41.9-6.5,56.8-18.3c17.8-14,27.1-34.6,27.1-59.5C640.2,262.7,630.8,242.3,612.4,228.9z M611.2,346.7
		c-14.4,11.4-33.9,17.6-55,17.6L492,363c-0.4,0-0.9,0-1.3,0c0,0,0,0,0,0c-2.6,0-5.1-0.5-7.5-1.3c-0.7-0.2-1.2-0.5-1.8-0.8
		c-14.9-8-30.9-16.7-50.3-27.4c-1.2-0.7-4.8-2.9-5.7-6.8c-2.2-1.5-4.3-4.4-4.3-10.1c0-7,0-14.1,0-21.1l0-7c0-2.6,0-5.3,0-7.9
		c0-6.4,0-12.9,0-19.4c-0.1-7.8,3.6-14.2,10.4-18c15-8.4,30.4-16.7,45.3-24.8l2.1-1.1c1.9-1,3.9-1.5,5.9-1.5c2.1,0,4,0.5,5.6,1.5
		c1.4-0.8,3.1-1.3,4.9-1.4l66.5-0.1c19.6,1,36.4,6.3,49,15.5c17.6,12.9,26.5,32.5,26.5,58.3C637.2,313.5,628.2,333.2,611.2,346.7z"
		/>
	<g>
		<path class="st8" d="M547.1,322.3c-16.7-9-33.4-18-50.1-26.9c-2.1-1.1-4.2-1.7-6.3-1.7v0c0,0,0,0,0,0c0,0-0.1,0-0.1,0v0
			c-2.1,0-4.2,0.6-6.3,1.7c-16.7,8.9-33.4,17.9-50.1,26.9c-1.1,0.6-2.5,1.8-2.5,2.7c0,0.9,1.4,2.2,2.5,2.7
			c16.7,9.2,33.5,18.3,50.3,27.4c0.3,0.1,0.6,0.3,0.9,0.4c3.4,1.3,7.1,1.3,10.5,0c0.3-0.1,0.6-0.3,0.9-0.4
			c16.8-9,33.6-18.2,50.3-27.4c1.1-0.6,2.4-1.8,2.5-2.7C549.6,324.1,548.2,322.9,547.1,322.3z M462.2,331.5c-4.4,0-7.8-1.9-7.9-4.5
			c-0.1-2.6,3.3-4.8,7.7-4.9c4.5-0.1,8.1,1.9,8.3,4.6C470.3,329.4,466.9,331.5,462.2,331.5z M519.1,331.5c-4.7,0-8.1-2.1-8-4.9
			c0.1-2.7,3.7-4.7,8.3-4.6c4.3,0.1,7.8,2.3,7.7,4.9C526.9,329.5,523.5,331.5,519.1,331.5z"/>
		<path class="st8" d="M427.6,288.5c0-9.1,0.1-18.2,0-27.4c-0.1-5.5,2.4-9.6,7-12.2c15.7-8.8,31.5-17.3,47.3-25.9
			c3.8-2,7.6,0.3,7.6,4.6c0,17.7,0.1,35.5-0.1,53.2c-0.1,6-2.7,10.8-8.3,13.8c-15.7,8.4-31.4,17-47.1,25.6c-4.6,2.5-6.3,1.4-6.3-3.7
			C427.6,307.3,427.6,297.9,427.6,288.5z M448.3,257.9c-0.8-0.6-2.1-2.1-3.6-2.5c-4.2-0.9-10,3.7-10.4,8c-0.3,2.3,0.8,3.8,3,4.4
			C441.5,268.9,448.3,263.6,448.3,257.9z M480.9,240.6c-0.8-0.6-2.1-2.2-3.7-2.5c-4.1-0.9-10.2,4-10.2,8.1c0,1.4,1.4,3.5,2.7,4
			C474.1,252,481,246.6,480.9,240.6z M476.4,276.2c-3.6,0.1-7.8,3.1-9.1,6.5c-1.4,3.7,0.7,6.5,4.7,5.9c4-0.6,7-2.9,8.6-6.7
			C482,278.6,480.1,276.1,476.4,276.2z M438.4,307.9c3.9,0.1,9.1-3.9,9.8-7.7c0.5-2.8-0.6-4.5-3.5-4.9c-4.2-0.5-9.3,3.2-10.3,7.3
			C433.7,305.8,435.3,307.8,438.4,307.9z"/>
		<path class="st8" d="M553,288.9c0,9.4,0,18.7,0,28.1c0,4.6-1.7,5.5-5.7,3.4c-16.1-8.6-32.1-17.2-48.2-25.8
			c-5.3-2.8-7.9-7.5-8-13.2c-0.2-18-0.1-36,0-54c0-4.3,4-6.3,8.2-4.1c12,6.4,24.1,12.9,36.1,19.4c3.1,1.7,6.2,3.5,9.4,5
			c5.8,2.8,8,7.8,8.2,13.8C553.2,270.7,553,279.8,553,288.9C553,288.9,553,288.9,553,288.9z M504.2,238c-3.7-0.1-5.6,2.8-4,6.3
			c1.7,3.8,4.8,5.9,8.8,6.5c3.3,0.5,5.4-1.9,4.6-5.2C512.8,241.8,508.2,238.1,504.2,238z M546.6,265.4c0.1-6.1-7.2-11.5-11.6-9.6
			c-1.2,0.5-2.5,2.8-2.5,4.2c0.3,4.3,6.2,8.8,10.4,7.9C544.5,267.5,545.8,265.9,546.6,265.4z M509.5,269.4c3.3,0,4.9-2.1,4.1-5.4
			c-0.9-4-5.9-7.7-9.9-7.4c-3.2,0.2-4.7,2.6-3.7,5.7C501,266,505.7,269.4,509.5,269.4z M546.6,285.8c0.4-6.3-7.3-11.9-11.8-9.8
			c-1.2,0.6-2.3,2.9-2.2,4.3c0.4,4.3,6,8.5,10.2,7.7C544.4,287.8,545.8,286.3,546.6,285.8z M509.3,288.8c3.4,0,4.9-1.8,4.3-5.2
			c-0.7-3.6-5.1-7.2-9.1-7.4c-3.9-0.2-5.7,2.2-4.5,5.9C501.1,285.6,505.5,288.8,509.3,288.8z M537.1,295.4c-3.5-0.1-5.3,1.8-4.7,4.9
			c0.9,4.1,6,8,10.1,7.7c3.2-0.2,4.8-2.6,3.7-5.7C545.1,298.7,540.9,295.5,537.1,295.4z"/>
	</g>
	<path class="st8" d="M554.7,222.2h-33.8c3,1.6,5.9,3.2,8.9,4.8l10.9,5.9c0.9,0.5,1.9,1,2.8,1.5c2.2,1.2,4.2,2.3,6.3,3.3
		c5.8,2.8,10,7.3,12.3,12.9c18.9,2.1,35.2,12.3,35.2,39c0,27.1-17,37.6-37,39.5c-1.7,5-6.1,7.8-7.6,8.6c-13.6,7.5-25.6,14-36.7,20
		h40.3c36.5,0,74.4-20.5,74.4-68.1C630.6,238.2,592.3,222.2,554.7,222.2z"/>
	<path class="st8" d="M562.1,272.6v33.9c8.4,0,15.3-7.6,15.3-17C577.3,280.2,570.5,272.6,562.1,272.6z"/>
</g>
<g id="Calque_2_-_copie_6" class="st0">
	<path class="st1" d="M861,227.1c-13-9.5-30.5-15.1-50.6-16.1l-0.1,0l-66.7,0.1l-0.1,0c-1.6,0.1-3.2,0.5-4.7,1
		c-1.8-0.8-3.7-1.2-5.7-1.2c-2.5,0-5,0.7-7.3,1.9l-2.1,1.1c-14.9,8.1-30.2,16.4-45.3,24.8c-7.8,4.4-12,11.7-11.9,20.6
		c0.1,6.4,0.1,13,0,19.3l0,0.4c0,2.5,0,5,0,7.5l0,7.4c0,6.9,0,13.8,0,20.7c0,6.5,2.4,10,4.7,11.9c1.5,4.3,5.2,6.7,6.8,7.6
		c19.4,10.7,35.4,19.4,50.4,27.4c0.6,0.4,1.4,0.7,2.2,1c2.7,1,5.6,1.5,8.6,1.5c0.4,0,0.9,0,1.3,0l64.2,1.3
		c21.7,0,41.9-6.5,56.8-18.3c17.8-14,27.1-34.6,27.1-59.5C888.8,260.9,879.4,240.5,861,227.1z M859.8,344.8
		c-14.4,11.4-33.9,17.6-55,17.6l-64.2-1.3c-0.4,0-0.9,0-1.3,0c0,0,0,0,0,0c-2.6,0-5.1-0.5-7.5-1.3c-0.7-0.2-1.2-0.5-1.8-0.8
		c-14.9-8-30.9-16.7-50.3-27.4c-1.2-0.7-4.8-2.9-5.7-6.8c-2.2-1.5-4.3-4.4-4.3-10.1c0-7,0-14.1,0-21.1l0-7c0-2.6,0-5.3,0-7.9
		c0-6.4,0-12.9,0-19.4c-0.1-7.8,3.6-14.2,10.4-18c15-8.4,30.4-16.7,45.3-24.8l2.1-1.1c1.9-1,3.9-1.5,5.9-1.5c2.1,0,4,0.5,5.6,1.5
		c1.4-0.8,3.1-1.3,4.9-1.4l66.5-0.1c19.6,1,36.4,6.3,49,15.5c17.6,12.9,26.5,32.5,26.5,58.3C885.8,311.7,876.8,331.4,859.8,344.8z"
		/>
	<g class="st3">
		<path class="st4" d="M795.7,320.5c-16.7-9-33.4-18-50.1-26.9c-2.1-1.1-4.2-1.7-6.3-1.7v0c0,0,0,0,0,0c0,0-0.1,0-0.1,0v0
			c-2.1,0-4.2,0.6-6.3,1.7c-16.7,8.9-33.4,17.9-50.1,26.9c-1.1,0.6-2.5,1.8-2.5,2.7c0,0.9,1.4,2.2,2.5,2.7
			c16.7,9.2,33.5,18.3,50.3,27.4c0.3,0.1,0.6,0.3,0.9,0.4c3.4,1.3,7.1,1.3,10.5,0c0.3-0.1,0.6-0.3,0.9-0.4
			c16.8-9,33.6-18.2,50.3-27.4c1.1-0.6,2.4-1.8,2.5-2.7C798.2,322.3,796.8,321.1,795.7,320.5z M710.8,329.7c-4.4,0-7.8-1.9-7.9-4.5
			c-0.1-2.6,3.3-4.8,7.7-4.9c4.5-0.1,8.1,1.9,8.3,4.6C718.9,327.6,715.5,329.7,710.8,329.7z M767.7,329.7c-4.7,0-8.1-2.1-8-4.9
			c0.1-2.7,3.7-4.7,8.3-4.6c4.3,0.1,7.8,2.3,7.7,4.9C775.5,327.7,772.1,329.7,767.7,329.7z"/>
		<path class="st5" d="M676.2,286.7c0-9.1,0.1-18.2,0-27.4c-0.1-5.5,2.4-9.6,7-12.2c15.7-8.8,31.5-17.3,47.3-25.9
			c3.8-2,7.6,0.3,7.6,4.6c0,17.7,0.1,35.5-0.1,53.2c-0.1,6-2.7,10.8-8.3,13.8c-15.7,8.4-31.4,17-47.1,25.6c-4.6,2.5-6.3,1.4-6.3-3.7
			C676.2,305.4,676.2,296.1,676.2,286.7z M696.9,256.1c-0.8-0.6-2.1-2.1-3.6-2.5c-4.2-0.9-10,3.7-10.4,8c-0.3,2.3,0.8,3.8,3,4.4
			C690.1,267.1,696.9,261.8,696.9,256.1z M729.5,238.8c-0.8-0.6-2.1-2.2-3.7-2.5c-4.1-0.9-10.2,4-10.2,8.1c0,1.4,1.4,3.5,2.7,4
			C722.6,250.2,729.6,244.8,729.5,238.8z M725,274.4c-3.6,0.1-7.8,3.1-9.1,6.5c-1.4,3.7,0.7,6.5,4.7,5.9c4-0.6,7-2.9,8.6-6.7
			C730.6,276.8,728.7,274.3,725,274.4z M686.9,306.1c3.9,0.1,9.1-3.9,9.8-7.7c0.5-2.8-0.6-4.5-3.5-4.9c-4.2-0.5-9.3,3.2-10.3,7.3
			C682.3,304,683.9,306,686.9,306.1z"/>
		<path class="st6" d="M801.6,287.1c0,9.4,0,18.7,0,28.1c0,4.6-1.7,5.5-5.7,3.4c-16.1-8.6-32.1-17.2-48.2-25.8
			c-5.3-2.8-7.9-7.5-8-13.2c-0.2-18-0.1-36,0-54c0-4.3,4-6.3,8.2-4.1c12,6.4,24.1,12.9,36.1,19.4c3.1,1.7,6.2,3.5,9.4,5
			c5.8,2.8,8,7.8,8.2,13.8C801.8,268.9,801.6,278,801.6,287.1C801.6,287.1,801.6,287.1,801.6,287.1z M752.7,236.2
			c-3.7-0.1-5.6,2.8-4,6.3c1.7,3.8,4.8,5.9,8.8,6.5c3.3,0.5,5.4-1.9,4.6-5.2C761.4,240,756.8,236.3,752.7,236.2z M795.2,263.5
			c0.1-6.1-7.2-11.5-11.6-9.6c-1.2,0.5-2.5,2.8-2.5,4.2c0.3,4.3,6.2,8.8,10.4,7.9C793.1,265.7,794.4,264.1,795.2,263.5z
			 M758.1,267.6c3.3,0,4.9-2.1,4.1-5.4c-0.9-4-5.9-7.7-9.9-7.4c-3.2,0.2-4.7,2.6-3.7,5.7C749.6,264.1,754.3,267.6,758.1,267.6z
			 M795.2,284c0.4-6.3-7.3-11.9-11.8-9.8c-1.2,0.6-2.3,2.9-2.2,4.3c0.4,4.3,6,8.5,10.2,7.7C793,286,794.3,284.5,795.2,284z
			 M757.9,287c3.4,0,4.9-1.8,4.3-5.2c-0.7-3.6-5.1-7.2-9.1-7.4c-3.9-0.2-5.7,2.2-4.5,5.9C749.7,283.8,754.1,287,757.9,287z
			 M785.7,293.6c-3.5-0.1-5.3,1.8-4.7,4.9c0.9,4.1,6,8,10.1,7.7c3.2-0.2,4.8-2.6,3.7-5.7C793.6,296.9,789.5,293.7,785.7,293.6z"/>
	</g>
	<path class="st1" d="M803.3,220.4h-33.8c3,1.6,5.9,3.2,8.9,4.8l10.9,5.9c0.9,0.5,1.9,1,2.8,1.5c2.2,1.2,4.2,2.3,6.3,3.3
		c5.8,2.8,10,7.3,12.3,12.9c18.9,2.1,35.2,12.3,35.2,39c0,27.1-17,37.6-37,39.5c-1.7,5-6.1,7.8-7.6,8.6c-13.6,7.5-25.6,14-36.7,20
		h40.3c36.5,0,74.4-20.5,74.4-68.1C879.2,236.4,840.9,220.4,803.3,220.4z"/>
	<path class="st7" d="M810.6,270.8v33.9c8.4,0,15.3-7.6,15.3-17C825.9,278.4,819.1,270.8,810.6,270.8z"/>
</g>
<g id="Calque_1" class="st0">
	<g id="Calque_2_-_copie" class="st3">
		<path class="st9" d="M251.6,628.9c-0.1,0-12-0.1-24-0.3c-24.8-0.4-25.9-1-26.8-1.5c-8.2-4.3-17.9-9.6-28.2-15.3
			c-2.6-1.4-5.2-2.9-7.8-4.3c-1.2-0.7-4-2.5-5.4-5.7c-1.7-1.6-3.5-4.4-3.5-9.2c0-4.8,0-9.5,0-14.3l0-4.8c0-1.7,0-3.4,0-5.1l0-0.3
			c0-4.3,0-8.7,0-13.1c-0.1-6.8,3.1-12.4,9.1-15.8c10.3-5.7,20.7-11.4,30.8-16.9l1.3-0.7c1.8-1,3.9-1.5,5.9-1.5h250
			c15,0,27.2,12.2,27.2,27.2v54c0,15.1-12.3,27.4-27.4,27.4h-51C400.6,628.8,266,628.9,251.6,628.9L251.6,628.9z"/>
		<linearGradient id="SVGID_2_" gradientUnits="userSpaceOnUse" x1="158.4714" y1="574.6031" x2="477.7962" y2="574.6031">
			<stop  offset="0" style="stop-color:#1E1A10"/>
			<stop  offset="1" style="stop-color:#080040"/>
		</linearGradient>
		<path class="st10" d="M477.8,547.5c0-13.6-11.1-24.7-24.7-24.7h-250c-1.6,0-3.2,0.4-4.7,1.2l-1.3,0.7
			c-10.1,5.5-20.6,11.2-30.8,16.9c-5.1,2.9-7.9,7.7-7.8,13.5c0.1,4.3,0,8.8,0,13.1c0,1.8,0,3.6,0,5.4l0,4.8c0,4.8,0,9.5,0,14.3
			c0,4.2,1.5,6.5,3.1,7.8c0.9,2.9,3.5,4.5,4.4,5c13.2,7.2,25.8,14.2,36,19.6c2.3,1.2,49.6,1.4,49.6,1.4c14.6,0,150.4-0.1,150.4-0.1
			h51c13.7,0,24.9-11.1,24.9-24.9V547.5z"/>
		<g>
			<path class="st4" d="M245.4,596.5c-11.3-6.1-22.6-12.2-34-18.2c-1.4-0.7-2.8-1.1-4.2-1.1v0c0,0,0,0,0,0c0,0-0.1,0-0.1,0v0
				c-1.4,0-2.8,0.4-4.2,1.1c-11.3,6-22.7,12.1-34,18.2c-0.7,0.4-1.7,1.2-1.7,1.8c0,0.6,0.9,1.5,1.7,1.9
				c11.3,6.2,22.7,12.4,34.1,18.5c0.2,0.1,0.4,0.2,0.6,0.3c2.3,0.8,4.8,0.8,7.1,0c0.2-0.1,0.4-0.2,0.6-0.3
				c11.4-6.1,22.7-12.3,34.1-18.5c0.7-0.4,1.7-1.2,1.7-1.9C247.1,597.7,246.2,596.9,245.4,596.5z M187.9,602.7c-3,0-5.3-1.3-5.4-3.1
				c-0.1-1.7,2.3-3.3,5.2-3.3c3.1-0.1,5.5,1.3,5.6,3.1C193.4,601.3,191.1,602.7,187.9,602.7z M226.5,602.7c-3.2,0-5.5-1.4-5.4-3.3
				c0.1-1.8,2.5-3.2,5.6-3.1c2.9,0.1,5.3,1.6,5.2,3.3C231.8,601.4,229.5,602.7,226.5,602.7z"/>
			<path class="st5" d="M164.5,573.6c0-6.2,0.1-12.4,0-18.5c0-3.7,1.7-6.5,4.7-8.2c10.6-5.9,21.3-11.7,32-17.6
				c2.5-1.4,5.1,0.2,5.1,3.1c0,12,0.1,24.1-0.1,36.1c-0.1,4-1.8,7.3-5.6,9.3c-10.7,5.7-21.3,11.5-31.9,17.3c-3.1,1.7-4.3,1-4.3-2.5
				C164.5,586.3,164.5,579.9,164.5,573.6z M178.5,552.9c-0.5-0.4-1.4-1.4-2.5-1.7c-2.8-0.6-6.7,2.5-7.1,5.4c-0.2,1.6,0.5,2.6,2,3
				C173.9,560.3,178.5,556.7,178.5,552.9z M200.6,541.1c-0.5-0.4-1.4-1.5-2.5-1.7c-2.8-0.6-6.9,2.7-6.9,5.5c0,0.9,0.9,2.4,1.8,2.7
				C195.9,548.9,200.7,545.2,200.6,541.1z M197.6,565.3c-2.4,0.1-5.3,2.1-6.2,4.4c-1,2.5,0.5,4.4,3.2,4c2.7-0.4,4.8-2,5.8-4.5
				C201.3,566.9,200,565.2,197.6,565.3z M171.8,586.7c2.7,0.1,6.2-2.6,6.7-5.2c0.4-1.9-0.4-3.1-2.4-3.3c-2.9-0.3-6.3,2.1-6.9,5
				C168.6,585.3,169.7,586.7,171.8,586.7z"/>
			<path class="st6" d="M249.4,573.9c0,6.3,0,12.7,0,19c0,3.1-1.2,3.8-3.9,2.3c-10.9-5.8-21.7-11.7-32.6-17.5
				c-3.6-1.9-5.4-5.1-5.4-9c-0.2-12.2-0.1-24.4,0-36.6c0-2.9,2.7-4.3,5.5-2.8c8.2,4.4,16.3,8.8,24.4,13.1c2.1,1.1,4.2,2.3,6.4,3.4
				c3.9,1.9,5.5,5.3,5.6,9.3C249.6,561.5,249.5,567.7,249.4,573.9C249.4,573.9,249.4,573.9,249.4,573.9z M216.3,539.4
				c-2.5,0-3.8,1.9-2.7,4.3c1.1,2.6,3.3,4,6,4.4c2.3,0.3,3.6-1.3,3.1-3.6C222.2,541.9,219.1,539.4,216.3,539.4z M245.1,557.9
				c0.1-4.1-4.9-7.8-7.9-6.5c-0.8,0.4-1.7,1.9-1.7,2.8c0.2,2.9,4.2,6,7.1,5.4C243.7,559.4,244.5,558.3,245.1,557.9z M219.9,560.6
				c2.2,0,3.3-1.4,2.8-3.6c-0.6-2.7-4-5.2-6.7-5c-2.1,0.1-3.2,1.7-2.5,3.9C214.2,558.3,217.4,560.6,219.9,560.6z M245.1,571.8
				c0.2-4.2-4.9-8.1-8-6.6c-0.8,0.4-1.6,2-1.5,2.9c0.3,2.9,4,5.7,6.9,5.2C243.6,573.1,244.5,572.1,245.1,571.8z M219.8,573.8
				c2.3,0,3.3-1.2,2.9-3.5c-0.5-2.4-3.5-4.9-6.2-5c-2.6-0.1-3.9,1.5-3,4C214.3,571.7,217.3,573.8,219.8,573.8z M238.7,578.3
				c-2.4-0.1-3.6,1.2-3.2,3.3c0.6,2.8,4,5.4,6.9,5.2c2.2-0.1,3.2-1.7,2.5-3.8C244,580.5,241.3,578.4,238.7,578.3z"/>
		</g>
		<path class="st9" d="M250.6,528.6h-22.9c2,1.1,4,2.2,6,3.2l7.4,4c0.6,0.3,1.3,0.7,1.9,1c1.5,0.8,2.9,1.6,4.3,2.3
			c3.9,1.9,6.7,4.9,8.3,8.7c12.8,1.4,23.8,8.3,23.8,26.4c0,18.4-11.5,25.5-25.1,26.7c-1.1,3.4-4.1,5.3-5.2,5.8
			c-9.2,5.1-17.4,9.5-24.9,13.6h27.3c24.8,0,50.4-13.9,50.4-46.2C302,539.5,276.1,528.6,250.6,528.6z"/>
		<path class="st6" d="M255.6,562.8v23c5.7,0,10.3-5.1,10.3-11.5C265.9,568,261.3,562.8,255.6,562.8z"/>
		<g>
			<path class="st9" d="M304.1,620.4v-91.7h16.7v91.7H304.1z"/>
			<path class="st9" d="M371.7,620.3c-26.7,0-46.7-18.6-46.7-45.9c0-27.8,20.6-45.6,47.1-45.6c12.1,0,25.3,4.4,32.5,12.8l-14.2,14.2
				c-3.9-5.4-10.9-8-17.5-8c-14.6,0-25,11.3-25,26.6c0,15.8,10.2,26.6,24.6,26.6c8.2,0,14.7-3.7,18.4-8.8l14.6,13.7
				C397.9,614.8,386.3,620.3,371.7,620.3z"/>
			<path class="st9" d="M408,620.3v-91.5h45.1c10.3,0,18.7,8.4,18.7,18.7l0,0h-42.5v17.2h38v17.7h-38v19h42.5l0,0
				c0,10.4-8.4,18.9-18.9,18.9H408z"/>
		</g>
		<text transform="matrix(0 -1 1 0 152.6204 593.9989)" class="st11 st12 st13">T  H  E</text>
	</g>
</g>
<g id="Calque_1_-_copie" class="st0">
	<g id="Calque_2_-_copie_2" class="st3">
		<path class="st9" d="M817.7,519h-250c-2,0-4.1,0.5-5.9,1.5l-1.3,0.7c-10.1,5.5-20.6,11.2-30.8,16.9c-6,3.3-9.2,8.9-9.1,15.8
			c0.1,4.3,0,8.8,0,13.1l0,0.3c0,1.7,0,3.4,0,5.1l0,4.8c0,4.8,0,9.5,0,14.3c0,4.9,1.8,7.7,3.5,9.2c1.3,3.2,4.2,5.1,5.4,5.7
			c2.6,1.4,5.3,2.9,7.8,4.3c10.3,5.7,20,11,28.2,15.3c0.8,0.4,2,1,26.8,1.5c12,0.2,23.8,0.3,24,0.3h0c14.5,0,149-0.1,150.4-0.1h51
			c15.1,0,27.4-12.3,27.4-27.4v-54C844.9,531.2,832.7,519,817.7,519z M842.4,600.2c0,13.7-11.1,24.9-24.9,24.9h-51
			c0,0-135.8,0.1-150.4,0.1c0,0-47.3-0.3-49.6-1.4c-10.2-5.3-22.8-12.3-36-19.6c-0.9-0.5-3.5-2.2-4.4-5c-1.7-1.3-3.1-3.6-3.1-7.8
			c0-4.8,0-9.5,0-14.3l0-4.8c0-1.8,0-3.6,0-5.4c0-4.3,0-8.7,0-13.1c-0.1-5.9,2.7-10.7,7.8-13.5c10.2-5.7,20.7-11.4,30.8-16.9
			l1.3-0.7c1.5-0.8,3.1-1.2,4.7-1.2h250c13.6,0,24.7,11.1,24.7,24.7V600.2z"/>
		<g>
			<path class="st4" d="M610.1,595.3c-11.3-6.1-22.6-12.2-34-18.2c-1.4-0.7-2.8-1.1-4.2-1.1v0c0,0,0,0,0,0c0,0-0.1,0-0.1,0v0
				c-1.4,0-2.8,0.4-4.2,1.1c-11.3,6-22.7,12.1-34,18.2c-0.7,0.4-1.7,1.2-1.7,1.8c0,0.6,0.9,1.5,1.7,1.9
				c11.3,6.2,22.7,12.4,34.1,18.5c0.2,0.1,0.4,0.2,0.6,0.3c2.3,0.8,4.8,0.8,7.1,0c0.2-0.1,0.4-0.2,0.6-0.3
				c11.4-6.1,22.7-12.3,34.1-18.5c0.7-0.4,1.7-1.2,1.7-1.9C611.7,596.5,610.8,595.6,610.1,595.3z M552.5,601.5c-3,0-5.3-1.3-5.4-3.1
				c-0.1-1.7,2.3-3.3,5.2-3.3c3.1-0.1,5.5,1.3,5.6,3.1C558,600.1,555.7,601.5,552.5,601.5z M591.1,601.5c-3.2,0-5.5-1.4-5.4-3.3
				c0.1-1.8,2.5-3.2,5.6-3.1c2.9,0.1,5.3,1.6,5.2,3.3C596.4,600.2,594.1,601.5,591.1,601.5z"/>
			<path class="st5" d="M529.1,572.4c0-6.2,0.1-12.4,0-18.5c0-3.7,1.7-6.5,4.7-8.2c10.6-5.9,21.3-11.7,32-17.6
				c2.5-1.4,5.1,0.2,5.1,3.1c0,12,0.1,24.1-0.1,36.1c-0.1,4-1.8,7.3-5.6,9.3c-10.7,5.7-21.3,11.5-31.9,17.3c-3.1,1.7-4.3,1-4.3-2.5
				C529.1,585.1,529.1,578.7,529.1,572.4z M543.1,551.6c-0.5-0.4-1.4-1.4-2.5-1.7c-2.8-0.6-6.7,2.5-7.1,5.4c-0.2,1.6,0.5,2.6,2,3
				C538.5,559.1,543.1,555.5,543.1,551.6z M565.2,539.9c-0.5-0.4-1.4-1.5-2.5-1.7c-2.8-0.6-6.9,2.7-6.9,5.5c0,0.9,0.9,2.4,1.8,2.7
				C560.6,547.6,565.3,544,565.2,539.9z M562.2,564c-2.4,0.1-5.3,2.1-6.2,4.4c-1,2.5,0.5,4.4,3.2,4c2.7-0.4,4.8-2,5.8-4.5
				C565.9,565.7,564.7,564,562.2,564z M536.4,585.5c2.7,0.1,6.2-2.6,6.7-5.2c0.4-1.9-0.4-3.1-2.4-3.3c-2.9-0.3-6.3,2.1-6.9,5
				C533.2,584.1,534.3,585.5,536.4,585.5z"/>
			<path class="st6" d="M614.1,572.6c0,6.3,0,12.7,0,19c0,3.1-1.2,3.8-3.9,2.3c-10.9-5.8-21.7-11.7-32.6-17.5
				c-3.6-1.9-5.4-5.1-5.4-9c-0.2-12.2-0.1-24.4,0-36.6c0-2.9,2.7-4.3,5.5-2.8c8.2,4.4,16.3,8.8,24.4,13.1c2.1,1.1,4.2,2.3,6.4,3.4
				c3.9,1.9,5.5,5.3,5.6,9.3C614.2,560.3,614.1,566.5,614.1,572.6C614.1,572.6,614.1,572.6,614.1,572.6z M581,538.2
				c-2.5,0-3.8,1.9-2.7,4.3c1.1,2.6,3.3,4,6,4.4c2.3,0.3,3.6-1.3,3.1-3.6C586.8,540.7,583.7,538.2,581,538.2z M609.7,556.7
				c0.1-4.1-4.9-7.8-7.9-6.5c-0.8,0.4-1.7,1.9-1.7,2.8c0.2,2.9,4.2,6,7.1,5.4C608.3,558.2,609.2,557.1,609.7,556.7z M584.6,559.4
				c2.2,0,3.3-1.4,2.8-3.6c-0.6-2.7-4-5.2-6.7-5c-2.1,0.1-3.2,1.7-2.5,3.9C578.8,557.1,582,559.4,584.6,559.4z M609.7,570.5
				c0.2-4.2-4.9-8.1-8-6.6c-0.8,0.4-1.6,2-1.5,2.9c0.3,2.9,4,5.7,6.9,5.2C608.2,571.9,609.1,570.9,609.7,570.5z M584.4,572.6
				c2.3,0,3.3-1.2,2.9-3.5c-0.5-2.4-3.5-4.9-6.2-5c-2.6-0.1-3.9,1.5-3,4C578.9,570.4,581.9,572.6,584.4,572.6z M603.3,577
				c-2.4-0.1-3.6,1.2-3.2,3.3c0.6,2.8,4,5.4,6.9,5.2c2.2-0.1,3.2-1.7,2.5-3.8C608.7,579.2,605.9,577.1,603.3,577z"/>
		</g>
		<path class="st9" d="M615.2,527.4h-22.9c2,1.1,4,2.2,6,3.2l7.4,4c0.6,0.3,1.3,0.7,1.9,1c1.5,0.8,2.9,1.6,4.3,2.3
			c3.9,1.9,6.7,4.9,8.3,8.7c12.8,1.4,23.8,8.3,23.8,26.4c0,18.4-11.5,25.5-25.1,26.7c-1.1,3.4-4.1,5.3-5.2,5.8
			c-9.2,5.1-17.4,9.5-24.9,13.6h27.3c24.8,0,50.4-13.9,50.4-46.2C666.6,538.3,640.7,527.4,615.2,527.4z"/>
		<path class="st6" d="M620.2,561.6v23c5.7,0,10.3-5.1,10.3-11.5S625.9,561.6,620.2,561.6z"/>
		<g>
			<path class="st9" d="M668.8,619.2v-91.7h16.7v91.7H668.8z"/>
			<path class="st9" d="M736.4,619.1c-26.7,0-46.7-18.6-46.7-45.9c0-27.8,20.6-45.6,47.1-45.6c12.1,0,25.3,4.4,32.5,12.8L755,554.6
				c-3.9-5.4-10.9-8-17.5-8c-14.6,0-25,11.3-25,26.6c0,15.8,10.2,26.6,24.6,26.6c8.2,0,14.7-3.7,18.4-8.8l14.6,13.7
				C762.5,613.6,751,619.1,736.4,619.1z"/>
			<path class="st9" d="M772.6,619.1v-91.5h45.1c10.3,0,18.7,8.4,18.7,18.7v0h-42.5v17.2h38v17.7h-38v19h42.5l0,0
				c0,10.4-8.4,18.9-18.9,18.9H772.6z"/>
		</g>
		<text transform="matrix(0 -1 1 0 517.2443 592.7706)" class="st11 st12 st13">T  H  E</text>
	</g>
</g>
<g id="Calque_1_-_copie_2" class="st0">
	<g id="Calque_2_-_copie_3" class="st3">
		<path class="st8" d="M453.1,646.3h-250c-2,0-4.1,0.5-5.9,1.5l-1.3,0.7c-10.1,5.5-20.6,11.2-30.8,16.9c-6,3.3-9.2,8.9-9.1,15.8
			c0.1,4.3,0,8.8,0,13.1l0,0.3c0,1.7,0,3.4,0,5.1l0,4.8c0,4.8,0,9.5,0,14.3c0,4.9,1.8,7.7,3.5,9.2c1.3,3.2,4.2,5.1,5.4,5.7
			c2.6,1.4,5.3,2.9,7.8,4.3c10.3,5.7,20,11,28.2,15.3c0.8,0.4,2,1,26.8,1.5c12,0.2,23.8,0.3,24,0.3h0c14.5,0,149-0.1,150.4-0.1h51
			c15.1,0,27.4-12.3,27.4-27.4v-54C480.3,658.5,468.1,646.3,453.1,646.3z M477.8,727.5c0,13.7-11.1,24.9-24.9,24.9h-51
			c0,0-135.8,0.1-150.4,0.1c0,0-47.3-0.3-49.6-1.4c-10.2-5.3-22.8-12.3-36-19.6c-0.9-0.5-3.5-2.2-4.4-5c-1.7-1.3-3.1-3.6-3.1-7.8
			c0-4.8,0-9.5,0-14.3l0-4.8c0-1.8,0-3.6,0-5.4c0-4.3,0-8.7,0-13.1c-0.1-5.9,2.7-10.7,7.8-13.5c10.2-5.7,20.7-11.4,30.8-16.9
			l1.3-0.7c1.5-0.8,3.1-1.2,4.7-1.2h250c13.6,0,24.7,11.1,24.7,24.7V727.5z"/>
		<g>
			<path class="st8" d="M245.4,722.5c-11.3-6.1-22.6-12.2-34-18.2c-1.4-0.7-2.8-1.1-4.2-1.1v0c0,0,0,0,0,0c0,0-0.1,0-0.1,0v0
				c-1.4,0-2.8,0.4-4.2,1.1c-11.3,6-22.7,12.1-34,18.2c-0.7,0.4-1.7,1.2-1.7,1.8c0,0.6,0.9,1.5,1.7,1.9
				c11.3,6.2,22.7,12.4,34.1,18.5c0.2,0.1,0.4,0.2,0.6,0.3c2.3,0.8,4.8,0.8,7.1,0c0.2-0.1,0.4-0.2,0.6-0.3
				c11.4-6.1,22.7-12.3,34.1-18.5c0.7-0.4,1.7-1.2,1.7-1.9C247.1,723.7,246.2,722.9,245.4,722.5z M187.9,728.7c-3,0-5.3-1.3-5.4-3.1
				c-0.1-1.7,2.3-3.3,5.2-3.3c3.1-0.1,5.5,1.3,5.6,3.1C193.4,727.3,191.1,728.7,187.9,728.7z M226.5,728.7c-3.2,0-5.5-1.4-5.4-3.3
				c0.1-1.8,2.5-3.2,5.6-3.1c2.9,0.1,5.3,1.6,5.2,3.3C231.8,727.4,229.5,728.7,226.5,728.7z"/>
			<path class="st8" d="M164.5,699.6c0-6.2,0.1-12.4,0-18.5c0-3.7,1.7-6.5,4.7-8.2c10.6-5.9,21.3-11.7,32-17.6
				c2.5-1.4,5.1,0.2,5.1,3.1c0,12,0.1,24.1-0.1,36.1c-0.1,4-1.8,7.3-5.6,9.3c-10.7,5.7-21.3,11.5-31.9,17.3c-3.1,1.7-4.3,1-4.3-2.5
				C164.5,712.3,164.5,706,164.5,699.6z M178.5,678.9c-0.5-0.4-1.4-1.4-2.5-1.7c-2.8-0.6-6.7,2.5-7.1,5.4c-0.2,1.6,0.5,2.6,2,3
				C173.9,686.4,178.5,682.8,178.5,678.9z M200.6,667.2c-0.5-0.4-1.4-1.5-2.5-1.7c-2.8-0.6-6.9,2.7-6.9,5.5c0,0.9,0.9,2.4,1.8,2.7
				C195.9,674.9,200.7,671.2,200.6,667.2z M197.6,691.3c-2.4,0.1-5.3,2.1-6.2,4.4c-1,2.5,0.5,4.4,3.2,4c2.7-0.4,4.8-2,5.8-4.5
				C201.3,692.9,200,691.2,197.6,691.3z M171.8,712.8c2.7,0.1,6.2-2.6,6.7-5.2c0.4-1.9-0.4-3.1-2.4-3.3c-2.9-0.3-6.3,2.1-6.9,5
				C168.6,711.3,169.7,712.7,171.8,712.8z"/>
			<path class="st8" d="M249.4,699.9c0,6.3,0,12.7,0,19c0,3.1-1.2,3.8-3.9,2.3c-10.9-5.8-21.7-11.7-32.6-17.5
				c-3.6-1.9-5.4-5.1-5.4-9c-0.2-12.2-0.1-24.4,0-36.6c0-2.9,2.7-4.3,5.5-2.8c8.2,4.4,16.3,8.8,24.4,13.1c2.1,1.1,4.2,2.3,6.4,3.4
				c3.9,1.9,5.5,5.3,5.6,9.3C249.6,687.5,249.5,693.7,249.4,699.9C249.4,699.9,249.4,699.9,249.4,699.9z M216.3,665.4
				c-2.5,0-3.8,1.9-2.7,4.3c1.1,2.6,3.3,4,6,4.4c2.3,0.3,3.6-1.3,3.1-3.6C222.2,668,219.1,665.5,216.3,665.4z M245.1,683.9
				c0.1-4.1-4.9-7.8-7.9-6.5c-0.8,0.4-1.7,1.9-1.7,2.8c0.2,2.9,4.2,6,7.1,5.4C243.7,685.4,244.5,684.3,245.1,683.9z M219.9,686.7
				c2.2,0,3.3-1.4,2.8-3.6c-0.6-2.7-4-5.2-6.7-5c-2.1,0.1-3.2,1.7-2.5,3.9C214.2,684.4,217.4,686.7,219.9,686.7z M245.1,697.8
				c0.2-4.2-4.9-8.1-8-6.6c-0.8,0.4-1.6,2-1.5,2.9c0.3,2.9,4,5.7,6.9,5.2C243.6,699.2,244.5,698.2,245.1,697.8z M219.8,699.8
				c2.3,0,3.3-1.2,2.9-3.5c-0.5-2.4-3.5-4.9-6.2-5c-2.6-0.1-3.9,1.5-3,4C214.3,697.7,217.3,699.8,219.8,699.8z M238.7,704.3
				c-2.4-0.1-3.6,1.2-3.2,3.3c0.6,2.8,4,5.4,6.9,5.2c2.2-0.1,3.2-1.7,2.5-3.8C244,706.5,241.3,704.4,238.7,704.3z"/>
		</g>
		<path class="st8" d="M250.6,654.7h-22.9c2,1.1,4,2.2,6,3.2l7.4,4c0.6,0.3,1.3,0.7,1.9,1c1.5,0.8,2.9,1.6,4.3,2.3
			c3.9,1.9,6.7,4.9,8.3,8.7c12.8,1.4,23.8,8.3,23.8,26.4c0,18.4-11.5,25.5-25.1,26.7c-1.1,3.4-4.1,5.3-5.2,5.8
			c-9.2,5.1-17.4,9.5-24.9,13.6h27.3c24.8,0,50.4-13.9,50.4-46.2C302,665.6,276.1,654.7,250.6,654.7z"/>
		<path class="st8" d="M255.6,688.9v23c5.7,0,10.3-5.1,10.3-11.5S261.3,688.9,255.6,688.9z"/>
		<g>
			<path class="st8" d="M304.1,746.5v-91.7h16.7v91.7H304.1z"/>
			<path class="st8" d="M371.7,746.3c-26.7,0-46.7-18.6-46.7-45.9c0-27.8,20.6-45.6,47.1-45.6c12.1,0,25.3,4.4,32.5,12.8l-14.2,14.2
				c-3.9-5.4-10.9-8-17.5-8c-14.6,0-25,11.3-25,26.6c0,15.8,10.2,26.6,24.6,26.6c8.2,0,14.7-3.7,18.4-8.8l14.6,13.7
				C397.9,740.8,386.3,746.3,371.7,746.3z"/>
			<path class="st8" d="M408,746.3v-91.5h45.1c10.3,0,18.7,8.4,18.7,18.7v0h-42.5v17.2h38v17.7h-38v19h42.5l0,0
				c0,10.4-8.4,18.9-18.9,18.9H408z"/>
		</g>
		<text transform="matrix(0 -1 1 0 152.6204 720.0367)" class="st8 st12 st13">T  H  E</text>
	</g>
</g>
<g id="Calque_1_-_copie_4" class="st0">
	<g id="Calque_2_-_copie_10" class="st3">
		<path class="st9" d="M449.9,772.3h-250c-2,0-4.1,0.5-5.9,1.5l-1.3,0.7c-10.1,5.5-20.6,11.2-30.8,16.9c-6,3.3-9.2,8.9-9.1,15.8
			c0.1,4.3,0,8.8,0,13.1l0,0.3c0,1.7,0,3.4,0,5.1l0,4.8c0,4.8,0,9.5,0,14.3c0,4.9,1.8,7.7,3.5,9.2c1.3,3.2,4.2,5.1,5.4,5.7
			c2.6,1.4,5.3,2.9,7.8,4.3c10.3,5.7,20,11,28.2,15.3c0.8,0.4,2,1,26.8,1.5c12,0.2,23.8,0.3,24,0.3h0c14.5,0,149-0.1,150.4-0.1h51
			c15.1,0,27.4-12.3,27.4-27.4v-54C477.1,784.5,464.9,772.3,449.9,772.3z M474.6,853.4c0,13.7-11.1,24.9-24.9,24.9h-51
			c0,0-135.8,0.1-150.4,0.1c0,0-47.3-0.3-49.6-1.4c-10.2-5.3-22.8-12.3-36-19.6c-0.9-0.5-3.5-2.2-4.4-5c-1.7-1.3-3.1-3.6-3.1-7.8
			c0-4.8,0-9.5,0-14.3l0-4.8c0-1.8,0-3.6,0-5.4c0-4.3,0-8.7,0-13.1c-0.1-5.9,2.7-10.7,7.8-13.5c10.2-5.7,20.7-11.4,30.8-16.9
			l1.3-0.7c1.5-0.8,3.1-1.2,4.7-1.2h250c13.6,0,24.7,11.1,24.7,24.7V853.4z"/>
		<g>
			<path class="st9" d="M242.2,848.5c-11.3-6.1-22.6-12.2-34-18.2c-1.4-0.7-2.8-1.1-4.2-1.1v0c0,0,0,0,0,0c0,0-0.1,0-0.1,0v0
				c-1.4,0-2.8,0.4-4.2,1.1c-11.3,6-22.7,12.1-34,18.2c-0.7,0.4-1.7,1.2-1.7,1.8c0,0.6,0.9,1.5,1.7,1.9
				c11.3,6.2,22.7,12.4,34.1,18.5c0.2,0.1,0.4,0.2,0.6,0.3c2.3,0.8,4.8,0.8,7.1,0c0.2-0.1,0.4-0.2,0.6-0.3
				c11.4-6.1,22.7-12.3,34.1-18.5c0.7-0.4,1.7-1.2,1.7-1.9C243.9,849.7,242.9,848.9,242.2,848.5z M184.7,854.7c-3,0-5.3-1.3-5.4-3.1
				c-0.1-1.7,2.3-3.3,5.2-3.3c3.1-0.1,5.5,1.3,5.6,3.1C190.2,853.3,187.9,854.7,184.7,854.7z M223.3,854.7c-3.2,0-5.5-1.4-5.4-3.3
				c0.1-1.8,2.5-3.2,5.6-3.1c2.9,0.1,5.3,1.6,5.2,3.3C228.6,853.4,226.3,854.7,223.3,854.7z"/>
			<path class="st9" d="M161.3,825.6c0-6.2,0.1-12.4,0-18.5c0-3.7,1.7-6.5,4.7-8.2c10.6-5.9,21.3-11.7,32-17.6
				c2.5-1.4,5.1,0.2,5.1,3.1c0,12,0.1,24.1-0.1,36.1c-0.1,4-1.8,7.3-5.6,9.3c-10.7,5.7-21.3,11.5-31.9,17.3c-3.1,1.7-4.3,1-4.3-2.5
				C161.3,838.3,161.3,831.9,161.3,825.6z M175.3,804.8c-0.5-0.4-1.4-1.4-2.5-1.7c-2.8-0.6-6.7,2.5-7.1,5.4c-0.2,1.6,0.5,2.6,2,3
				C170.7,812.3,175.3,808.7,175.3,804.8z M197.4,793.1c-0.5-0.4-1.4-1.5-2.5-1.7c-2.8-0.6-6.9,2.7-6.9,5.5c0,0.9,0.9,2.4,1.8,2.7
				C192.7,800.8,197.5,797.2,197.4,793.1z M194.4,817.2c-2.4,0.1-5.3,2.1-6.2,4.4c-1,2.5,0.5,4.4,3.2,4c2.7-0.4,4.8-2,5.8-4.5
				C198.1,818.9,196.8,817.2,194.4,817.2z M168.5,838.7c2.7,0.1,6.2-2.6,6.7-5.2c0.4-1.9-0.4-3.1-2.4-3.3c-2.9-0.3-6.3,2.1-6.9,5
				C165.4,837.3,166.5,838.7,168.5,838.7z"/>
			<path class="st9" d="M246.2,825.9c0,6.3,0,12.7,0,19c0,3.1-1.2,3.8-3.9,2.3c-10.9-5.8-21.7-11.7-32.6-17.5
				c-3.6-1.9-5.4-5.1-5.4-9c-0.2-12.2-0.1-24.4,0-36.6c0-2.9,2.7-4.3,5.5-2.8c8.2,4.4,16.3,8.8,24.4,13.1c2.1,1.1,4.2,2.3,6.4,3.4
				c3.9,1.9,5.5,5.3,5.6,9.3C246.4,813.5,246.2,819.7,246.2,825.9C246.2,825.9,246.2,825.9,246.2,825.9z M213.1,791.4
				c-2.5,0-3.8,1.9-2.7,4.3c1.1,2.6,3.3,4,6,4.4c2.3,0.3,3.6-1.3,3.1-3.6C219,793.9,215.8,791.4,213.1,791.4z M241.9,809.9
				c0.1-4.1-4.9-7.8-7.9-6.5c-0.8,0.4-1.7,1.9-1.7,2.8c0.2,2.9,4.2,6,7.1,5.4C240.5,811.4,241.3,810.3,241.9,809.9z M216.7,812.6
				c2.2,0,3.3-1.4,2.8-3.6c-0.6-2.7-4-5.2-6.7-5c-2.1,0.1-3.2,1.7-2.5,3.9C211,810.3,214.2,812.6,216.7,812.6z M241.9,823.7
				c0.2-4.2-4.9-8.1-8-6.6c-0.8,0.4-1.6,2-1.5,2.9c0.3,2.9,4,5.7,6.9,5.2C240.4,825.1,241.3,824.1,241.9,823.7z M216.6,825.8
				c2.3,0,3.3-1.2,2.9-3.5c-0.5-2.4-3.5-4.9-6.2-5c-2.6-0.1-3.9,1.5-3,4C211.1,823.6,214.1,825.8,216.6,825.8z M235.5,830.2
				c-2.4-0.1-3.6,1.2-3.2,3.3c0.6,2.8,4,5.4,6.9,5.2c2.2-0.1,3.2-1.7,2.5-3.8C240.8,832.5,238,830.3,235.5,830.2z"/>
		</g>
		<path class="st9" d="M247.4,780.6h-22.9c2,1.1,4,2.2,6,3.2l7.4,4c0.6,0.3,1.3,0.7,1.9,1c1.5,0.8,2.9,1.6,4.3,2.3
			c3.9,1.9,6.7,4.9,8.3,8.7c12.8,1.4,23.8,8.3,23.8,26.4c0,18.4-11.5,25.5-25.1,26.7c-1.1,3.4-4.1,5.3-5.2,5.8
			c-9.2,5.1-17.4,9.5-24.9,13.6h27.3c24.8,0,50.4-13.9,50.4-46.2C298.8,791.5,272.9,780.6,247.4,780.6z"/>
		<path class="st9" d="M252.4,814.8v23c5.7,0,10.3-5.1,10.3-11.5S258.1,814.8,252.4,814.8z"/>
		<g>
			<path class="st9" d="M300.9,872.4v-91.7h16.7v91.7H300.9z"/>
			<path class="st9" d="M368.5,872.3c-26.7,0-46.7-18.6-46.7-45.9c0-27.8,20.6-45.6,47.1-45.6c12.1,0,25.3,4.4,32.5,12.8l-14.2,14.2
				c-3.9-5.4-10.9-8-17.5-8c-14.6,0-25,11.3-25,26.6c0,15.8,10.2,26.6,24.6,26.6c8.2,0,14.7-3.7,18.4-8.8l14.6,13.7
				C394.7,866.8,383.1,872.3,368.5,872.3z"/>
			<path class="st9" d="M404.8,872.3v-91.5h45.1c10.3,0,18.7,8.4,18.7,18.7l0,0h-42.5v17.2h38v17.7h-38v19h42.5l0,0
				c0,10.4-8.4,18.9-18.9,18.9H404.8z"/>
		</g>
		<text transform="matrix(0 -1 1 0 149.4169 845.9817)" class="st9 st12 st13">T  H  E</text>
	</g>
</g>
<g id="Calque_1_-_copie_5" class="st0">
	<g id="Calque_2_-_copie_11" class="st3">
		<path class="st8" d="M822.8,769.7h-250c-2,0-4.1,0.5-5.9,1.5l-1.3,0.7c-10.1,5.5-20.6,11.2-30.8,16.9c-6,3.3-9.2,8.9-9.1,15.8
			c0.1,4.3,0,8.8,0,13.1l0,0.3c0,1.7,0,3.4,0,5.1l0,4.8c0,4.8,0,9.5,0,14.3c0,4.9,1.8,7.7,3.5,9.2c1.3,3.2,4.2,5.1,5.4,5.7
			c2.6,1.4,5.3,2.9,7.8,4.3c10.3,5.7,20,11,28.2,15.3c0.8,0.4,2,1,26.8,1.5c12,0.2,23.8,0.3,24,0.3h0c14.5,0,149-0.1,150.4-0.1h51
			c15.1,0,27.4-12.3,27.4-27.4v-54C849.9,781.9,837.7,769.7,822.8,769.7z M847.4,850.9c0,13.7-11.1,24.9-24.9,24.9h-51
			c0,0-135.8,0.1-150.4,0.1c0,0-47.3-0.3-49.6-1.4c-10.2-5.3-22.8-12.3-36-19.6c-0.9-0.5-3.5-2.2-4.4-5c-1.7-1.3-3.1-3.6-3.1-7.8
			c0-4.8,0-9.5,0-14.3l0-4.8c0-1.8,0-3.6,0-5.4c0-4.3,0-8.7,0-13.1c-0.1-5.9,2.7-10.7,7.8-13.5c10.2-5.7,20.7-11.4,30.8-16.9
			l1.3-0.7c1.5-0.8,3.1-1.2,4.7-1.2h250c13.6,0,24.7,11.1,24.7,24.7V850.9z"/>
		<g>
			<path class="st4" d="M615.1,845.9c-11.3-6.1-22.6-12.2-34-18.2c-1.4-0.7-2.8-1.1-4.2-1.1v0c0,0,0,0,0,0c0,0-0.1,0-0.1,0v0
				c-1.4,0-2.8,0.4-4.2,1.1c-11.3,6-22.7,12.1-34,18.2c-0.7,0.4-1.7,1.2-1.7,1.8c0,0.6,0.9,1.5,1.7,1.9
				c11.3,6.2,22.7,12.4,34.1,18.5c0.2,0.1,0.4,0.2,0.6,0.3c2.3,0.8,4.8,0.8,7.1,0c0.2-0.1,0.4-0.2,0.6-0.3
				c11.4-6.1,22.7-12.3,34.1-18.5c0.7-0.4,1.7-1.2,1.7-1.9C616.8,847.1,615.8,846.3,615.1,845.9z M557.6,852.2c-3,0-5.3-1.3-5.4-3.1
				c-0.1-1.7,2.3-3.3,5.2-3.3c3.1-0.1,5.5,1.3,5.6,3.1C563,850.7,560.7,852.2,557.6,852.2z M596.1,852.1c-3.2,0-5.5-1.4-5.4-3.3
				c0.1-1.8,2.5-3.2,5.6-3.1c2.9,0.1,5.3,1.6,5.2,3.3C601.4,850.8,599.1,852.1,596.1,852.1z"/>
			<path class="st5" d="M534.1,823c0-6.2,0.1-12.4,0-18.5c0-3.7,1.7-6.5,4.7-8.2c10.6-5.9,21.3-11.7,32-17.6
				c2.5-1.4,5.1,0.2,5.1,3.1c0,12,0.1,24.1-0.1,36.1c-0.1,4-1.8,7.3-5.6,9.3c-10.7,5.7-21.3,11.5-31.9,17.3c-3.1,1.7-4.3,1-4.3-2.5
				C534.1,835.7,534.1,829.4,534.1,823z M548.1,802.3c-0.5-0.4-1.4-1.4-2.5-1.7c-2.8-0.6-6.7,2.5-7.1,5.4c-0.2,1.6,0.5,2.6,2,3
				C543.5,809.8,548.1,806.2,548.1,802.3z M570.2,790.6c-0.5-0.4-1.4-1.5-2.5-1.7c-2.8-0.6-6.9,2.7-6.9,5.5c0,0.9,0.9,2.4,1.8,2.7
				C565.6,798.3,570.3,794.6,570.2,790.6z M567.2,814.7c-2.4,0.1-5.3,2.1-6.2,4.4c-1,2.5,0.5,4.4,3.2,4c2.7-0.4,4.8-2,5.8-4.5
				C571,816.3,569.7,814.7,567.2,814.7z M541.4,836.2c2.7,0.1,6.2-2.6,6.7-5.2c0.4-1.9-0.4-3.1-2.4-3.3c-2.9-0.3-6.3,2.1-6.9,5
				C538.2,834.7,539.3,836.1,541.4,836.2z"/>
			<path class="st6" d="M619.1,823.3c0,6.3,0,12.7,0,19c0,3.1-1.2,3.8-3.9,2.3c-10.9-5.8-21.7-11.7-32.6-17.5
				c-3.6-1.9-5.4-5.1-5.4-9c-0.2-12.2-0.1-24.4,0-36.6c0-2.9,2.7-4.3,5.5-2.8c8.2,4.4,16.3,8.8,24.4,13.1c2.1,1.1,4.2,2.3,6.4,3.4
				c3.9,1.9,5.5,5.3,5.6,9.3C619.2,811,619.1,817.1,619.1,823.3C619.1,823.3,619.1,823.3,619.1,823.3z M586,788.8
				c-2.5,0-3.8,1.9-2.7,4.3c1.1,2.6,3.3,4,6,4.4c2.3,0.3,3.6-1.3,3.1-3.6C591.8,791.4,588.7,788.9,586,788.8z M614.7,807.3
				c0.1-4.1-4.9-7.8-7.9-6.5c-0.8,0.4-1.7,1.9-1.7,2.8c0.2,2.9,4.2,6,7.1,5.4C613.3,808.8,614.2,807.7,614.7,807.3z M589.6,810.1
				c2.2,0,3.3-1.4,2.8-3.6c-0.6-2.7-4-5.2-6.7-5c-2.1,0.1-3.2,1.7-2.5,3.9C583.8,807.8,587,810.1,589.6,810.1z M614.7,821.2
				c0.2-4.2-4.9-8.1-8-6.6c-0.8,0.4-1.6,2-1.5,2.9c0.3,2.9,4,5.7,6.9,5.2C613.2,822.6,614.2,821.6,614.7,821.2z M589.5,823.3
				c2.3,0,3.3-1.2,2.9-3.5c-0.5-2.4-3.5-4.9-6.2-5c-2.6-0.1-3.9,1.5-3,4C583.9,821.1,586.9,823.2,589.5,823.3z M608.3,827.7
				c-2.4-0.1-3.6,1.2-3.2,3.3c0.6,2.8,4,5.4,6.9,5.2c2.2-0.1,3.2-1.7,2.5-3.8C613.7,829.9,610.9,827.8,608.3,827.7z"/>
		</g>
		<path class="st8" d="M620.2,778.1h-22.9c2,1.1,4,2.2,6,3.2l7.4,4c0.6,0.3,1.3,0.7,1.9,1c1.5,0.8,2.9,1.6,4.3,2.3
			c3.9,1.9,6.7,4.9,8.3,8.7c12.8,1.4,23.8,8.3,23.8,26.4c0,18.4-11.5,25.5-25.1,26.7c-1.1,3.4-4.1,5.3-5.2,5.8
			c-9.2,5.1-17.4,9.5-24.9,13.6h27.3c24.8,0,50.4-13.9,50.4-46.2C671.6,789,645.7,778.1,620.2,778.1z"/>
		<path class="st8" d="M625.2,812.3v23c5.7,0,10.3-5.1,10.3-11.5C635.6,817.4,630.9,812.3,625.2,812.3z"/>
		<g>
			<path class="st8" d="M673.8,869.9v-91.7h16.7v91.7H673.8z"/>
			<path class="st8" d="M741.4,869.7c-26.7,0-46.7-18.6-46.7-45.9c0-27.8,20.6-45.6,47.1-45.6c12.1,0,25.3,4.4,32.5,12.8L760,805.2
				c-3.9-5.4-10.9-8-17.5-8c-14.6,0-25,11.3-25,26.6c0,15.8,10.2,26.6,24.6,26.6c8.2,0,14.7-3.7,18.4-8.8l14.6,13.7
				C767.5,864.2,756,869.7,741.4,869.7z"/>
			<path class="st8" d="M777.6,869.7v-91.5h45.1c10.3,0,18.7,8.4,18.7,18.7l0,0h-42.5v17.2h38v17.7h-38v19h42.5l0,0
				c0,10.4-8.4,18.9-18.9,18.9H777.6z"/>
		</g>
		<text transform="matrix(0 -1 1 0 522.268 843.4402)" class="st8 st12 st13">T  H  E</text>
	</g>
</g>
<g id="Calque_1_-_copie_3" class="st0">
	<g id="Calque_2_-_copie_4" class="st3">
		<path class="st6" d="M819.4,640.8h-250c-2,0-4.1,0.5-5.9,1.5l-1.3,0.7c-10.1,5.5-20.6,11.2-30.8,16.9c-6,3.3-9.2,8.9-9.1,15.8
			c0.1,4.3,0,8.8,0,13.1l0,0.3c0,1.7,0,3.4,0,5.1l0,4.8c0,4.8,0,9.5,0,14.3c0,4.9,1.8,7.7,3.5,9.2c1.3,3.2,4.2,5.1,5.4,5.7
			c2.6,1.4,5.3,2.9,7.8,4.3c10.3,5.7,20,11,28.2,15.3c0.8,0.4,2,1,26.8,1.5c12,0.2,23.8,0.3,24,0.3h0c14.5,0,149-0.1,150.4-0.1h51
			c15.1,0,27.4-12.3,27.4-27.4v-54C846.6,653,834.4,640.8,819.4,640.8z M844.1,722c0,13.7-11.1,24.9-24.9,24.9h-51
			c0,0-135.8,0.1-150.4,0.1c0,0-47.3-0.3-49.6-1.4c-10.2-5.3-22.8-12.3-36-19.6c-0.9-0.5-3.5-2.2-4.4-5c-1.7-1.3-3.1-3.6-3.1-7.8
			c0-4.8,0-9.5,0-14.3l0-4.8c0-1.8,0-3.6,0-5.4c0-4.3,0-8.7,0-13.1c-0.1-5.9,2.7-10.7,7.8-13.5c10.2-5.7,20.7-11.4,30.8-16.9
			l1.3-0.7c1.5-0.8,3.1-1.2,4.7-1.2h250c13.6,0,24.7,11.1,24.7,24.7V722z"/>
		<g>
			<path class="st6" d="M611.7,717c-11.3-6.1-22.6-12.2-34-18.2c-1.4-0.7-2.8-1.1-4.2-1.1v0c0,0,0,0,0,0c0,0-0.1,0-0.1,0v0
				c-1.4,0-2.8,0.4-4.2,1.1c-11.3,6-22.7,12.1-34,18.2c-0.7,0.4-1.7,1.2-1.7,1.8c0,0.6,0.9,1.5,1.7,1.9
				c11.3,6.2,22.7,12.4,34.1,18.5c0.2,0.1,0.4,0.2,0.6,0.3c2.3,0.8,4.8,0.8,7.1,0c0.2-0.1,0.4-0.2,0.6-0.3
				c11.4-6.1,22.7-12.3,34.1-18.5c0.7-0.4,1.7-1.2,1.7-1.9C613.4,718.2,612.5,717.4,611.7,717z M554.2,723.2c-3,0-5.3-1.3-5.4-3.1
				c-0.1-1.7,2.3-3.3,5.2-3.3c3.1-0.1,5.5,1.3,5.6,3.1C559.7,721.8,557.4,723.2,554.2,723.2z M592.8,723.2c-3.2,0-5.5-1.4-5.4-3.3
				c0.1-1.8,2.5-3.2,5.6-3.1c2.9,0.1,5.3,1.6,5.2,3.3C598.1,721.9,595.8,723.2,592.8,723.2z"/>
			<path class="st6" d="M530.8,694.1c0-6.2,0.1-12.4,0-18.5c0-3.7,1.7-6.5,4.7-8.2c10.6-5.9,21.3-11.7,32-17.6
				c2.5-1.4,5.1,0.2,5.1,3.1c0,12,0.1,24.1-0.1,36.1c-0.1,4-1.8,7.3-5.6,9.3c-10.7,5.7-21.3,11.5-31.9,17.3c-3.1,1.7-4.3,1-4.3-2.5
				C530.8,706.8,530.8,700.5,530.8,694.1z M544.8,673.4c-0.5-0.4-1.4-1.4-2.5-1.7c-2.8-0.6-6.7,2.5-7.1,5.4c-0.2,1.6,0.5,2.6,2,3
				C540.2,680.9,544.8,677.3,544.8,673.4z M566.9,661.7c-0.5-0.4-1.4-1.5-2.5-1.7c-2.8-0.6-6.9,2.7-6.9,5.5c0,0.9,0.9,2.4,1.8,2.7
				C562.2,669.4,567,665.7,566.9,661.7z M563.9,685.8c-2.4,0.1-5.3,2.1-6.2,4.4c-1,2.5,0.5,4.4,3.2,4c2.7-0.4,4.8-2,5.8-4.5
				C567.6,687.4,566.3,685.7,563.9,685.8z M538.1,707.3c2.7,0.1,6.2-2.6,6.7-5.2c0.4-1.9-0.4-3.1-2.4-3.3c-2.9-0.3-6.3,2.1-6.9,5
				C534.9,705.8,536,707.2,538.1,707.3z"/>
			<path class="st6" d="M615.7,694.4c0,6.3,0,12.7,0,19c0,3.1-1.2,3.8-3.9,2.3c-10.9-5.8-21.7-11.7-32.6-17.5
				c-3.6-1.9-5.4-5.1-5.4-9c-0.2-12.2-0.1-24.4,0-36.6c0-2.9,2.7-4.3,5.5-2.8c8.2,4.4,16.3,8.8,24.4,13.1c2.1,1.1,4.2,2.3,6.4,3.4
				c3.9,1.9,5.5,5.3,5.6,9.3C615.9,682,615.7,688.2,615.7,694.4C615.7,694.4,615.7,694.4,615.7,694.4z M582.6,659.9
				c-2.5,0-3.8,1.9-2.7,4.3c1.1,2.6,3.3,4,6,4.4c2.3,0.3,3.6-1.3,3.1-3.6C588.5,662.5,585.4,660,582.6,659.9z M611.4,678.4
				c0.1-4.1-4.9-7.8-7.9-6.5c-0.8,0.4-1.7,1.9-1.7,2.8c0.2,2.9,4.2,6,7.1,5.4C610,679.9,610.8,678.8,611.4,678.4z M586.2,681.2
				c2.2,0,3.3-1.4,2.8-3.6c-0.6-2.7-4-5.2-6.7-5c-2.1,0.1-3.2,1.7-2.5,3.9C580.5,678.8,583.7,681.2,586.2,681.2z M611.4,692.3
				c0.2-4.2-4.9-8.1-8-6.6c-0.8,0.4-1.6,2-1.5,2.9c0.3,2.9,4,5.7,6.9,5.2C609.9,693.7,610.8,692.7,611.4,692.3z M586.1,694.3
				c2.3,0,3.3-1.2,2.9-3.5c-0.5-2.4-3.5-4.9-6.2-5c-2.6-0.1-3.9,1.5-3,4C580.6,692.2,583.6,694.3,586.1,694.3z M605,698.8
				c-2.4-0.1-3.6,1.2-3.2,3.3c0.6,2.8,4,5.4,6.9,5.2c2.2-0.1,3.2-1.7,2.5-3.8C610.3,701,607.6,698.9,605,698.8z"/>
		</g>
		<path class="st6" d="M616.9,649.2H594c2,1.1,4,2.2,6,3.2l7.4,4c0.6,0.3,1.3,0.7,1.9,1c1.5,0.8,2.9,1.6,4.3,2.3
			c3.9,1.9,6.7,4.9,8.3,8.7c12.8,1.4,23.8,8.3,23.8,26.4c0,18.4-11.5,25.5-25.1,26.7c-1.1,3.4-4.1,5.3-5.2,5.8
			c-9.2,5.1-17.4,9.5-24.9,13.6h27.3c24.8,0,50.4-13.9,50.4-46.2C668.3,660.1,642.4,649.2,616.9,649.2z"/>
		<path class="st6" d="M621.9,683.4v23c5.7,0,10.3-5.1,10.3-11.5C632.2,688.5,627.6,683.4,621.9,683.4z"/>
		<g>
			<path class="st6" d="M670.4,741v-91.7h16.7V741H670.4z"/>
			<path class="st6" d="M738,740.8c-26.7,0-46.7-18.6-46.7-45.9c0-27.8,20.6-45.6,47.1-45.6c12.1,0,25.3,4.4,32.5,12.8l-14.2,14.2
				c-3.9-5.4-10.9-8-17.5-8c-14.6,0-25,11.3-25,26.6c0,15.8,10.2,26.6,24.6,26.6c8.2,0,14.7-3.7,18.4-8.8l14.6,13.7
				C764.2,735.3,752.6,740.8,738,740.8z"/>
			<path class="st6" d="M774.3,740.8v-91.5h45.1c10.3,0,18.7,8.4,18.7,18.7l0,0h-42.5v17.2h38V703h-38v19h42.5l0,0
				c0,10.4-8.4,18.9-18.9,18.9H774.3z"/>
		</g>
		<text transform="matrix(0 -1 1 0 518.9197 714.5305)" class="st6 st12 st13">T  H  E</text>
	</g>
</g>
</svg>
